<svg xmlns="http://www.w3.org/2000/svg" viewBox="0 0 560 650">
  <defs>
    <linearGradient id="j" x1="0" x2="1" y1="0" y2="1"><stop stop-color="#283460"/><stop offset="1" stop-color="#11162a"/></linearGradient>
  </defs>
  <rect width="560" height="650" rx="28" fill="#0b0e18"/>
  <circle cx="280" cy="285" r="205" fill="#111629" stroke="#303a67"/>
  <path d="M117 650c11-143 72-220 163-220s153 77 164 220" fill="url(#j)"/>
  <path d="M229 422c-24-20-41-61-44-110l-4-75c-5-87 46-139 101-139 71 0 108 55 102 139l-5 75c-3 49-23 89-50 110-31 24-69 24-100 0z" fill="#c58f73"/>
  <path d="M186 248c-19-100 26-167 102-167 77 0 118 65 94 172-13-13-19-36-17-67-38 12-96-5-126-31-1 42-18 73-53 93z" fill="#141827"/>
  <rect x="92" y="505" width="376" height="145" rx="16" fill="#0b0f1e" stroke="#4d5c99" stroke-width="2"/>
  <circle cx="280" cy="572" r="18" fill="none" stroke="#7c83ff" stroke-width="6"/>
</svg>
