<svg xmlns="http://www.w3.org/2000/svg" viewBox="0 0 64 64">
  <defs>
    <linearGradient id="g" x1="0" y1="0" x2="1" y2="1">
      <stop stop-color="#7c83ff"/>
      <stop offset="1" stop-color="#5140a8"/>
    </linearGradient>
  </defs>
  <rect width="64" height="64" rx="18" fill="#090b12"/>
  <rect x="7" y="7" width="50" height="50" rx="14" fill="url(#g)"/>
  <path d="M18 44V20h9.3c6 0 9.7 3.3 9.7 8.4 0 5.2-3.8 8.6-9.8 8.6h-3.6v7H18zm5.6-11.8h3.2c3 0 4.6-1.3 4.6-3.8 0-2.4-1.6-3.7-4.6-3.7h-3.2v7.5zM39 44V20h6l4 13.8L53 20h6v24h-4.8V27.8L49.3 44h-3.1l-4.9-16.2V44H39z" fill="#fff" transform="scale(.78) translate(7 9)"/>
</svg>
